<svg width="2389" height="2048" xmlns="http://www.w3.org/2000/svg" viewBox="0 0 2389 2048"><path d="m1194.387085,2047.520752q-34.658569,0 -58.652954,-23.994385l-831.805267,-802.478882q-13.330231,-10.664185 -36.658081,-34.658569t-73.982697,-87.312866t-90.645447,-129.969604t-71.316639,-161.295532t-31.326,-183.95697q0,-293.264679 169.293701,-458.559311t467.890442,-165.294632q82.647339,0 168.627197,28.659958t159.962585,77.315231t127.303467,91.311966t101.309692,90.645432q47.98877,-47.988754 101.30957,-90.645432t127.303589,-91.311966t159.962524,-77.315231t168.627197,-28.659958q298.596802,0 467.890503,165.294632t169.293701,458.559311q0,294.597717 -305.261963,599.859558l-830.472168,799.812866q-23.994385,23.994385 -58.652954,23.994385z"/></svg>