<svg width="2048" height="2048" xmlns="http://www.w3.org/2000/svg" viewBox="0 0 2048 2048"><path d="m191.998596,724.246704c0,222.250366 86.623352,431.248779 243.998199,588.495728l-135.751007,135.750977c-193.622574,-193.502686 -300.245789,-450.748718 -300.245789,-724.246704s106.499222,-530.748123 299.997833,-723.99469l135.750977,135.746979c-157.250854,156.998871 -243.750214,365.997314 -243.750214,588.247711zm537.748047,-294.249878l-135.750977,-135.751007c-114.75116,114.999146 -177.998688,267.750031 -177.998688,429.996857c0,162.498779 63.251526,315.249756 178.250641,429.996948l135.751038,-135.751099c-78.751404,-78.49939 -121.999146,-182.998596 -121.999146,-294.249878c-0.004028,-110.991089 43.247742,-215.490356 121.747131,-294.241821zm1017.992371,-429.996826l-135.750854,135.751007c157.374756,157.250824 243.998291,366.249298 243.998291,588.495697s-86.49939,431.248779 -243.622437,588.495605l135.751099,135.751099c193.374634,-193.498657 299.873901,-450.748718 299.873901,-724.246704c-0.003906,-273.75 -106.627319,-530.996124 -300.25,-724.246704zm-723.74646,532.248108c-105.999268,0 -191.998657,85.99939 -191.998657,191.998596c0,70.999451 38.875732,132.251099 95.999329,165.374756l0,1158.363647l191.998596,0l0,-1158.239624c57.123535,-33.251709 95.999146,-94.499329 95.999146,-165.498779c0,-105.999207 -85.875244,-191.998596 -191.998413,-191.998596zm429.748779,-237.99826l-135.750977,135.746979c78.623413,78.751465 121.999023,183.250732 121.999023,294.249878c0,111.251221 -43.251587,215.750427 -121.751099,294.249817l135.750977,135.751038c114.751221,-114.751099 177.998901,-267.497986 177.998901,-429.996826s-63.247681,-315.00174 -178.246826,-430.000885z"/></svg>